<svg xmlns="http://www.w3.org/2000/svg" viewBox="0 0 24 24" style="pointer-events: none; display: block;"><g id="drive-document">
  <path
     d="m 14.84141,11.87294 -1.284689,-0.343758 q 0.216632,-1.15084 0.745623,-1.7038365 0.528991,-0.55301 1.57185,-0.55301 0.947138,0 1.410632,0.336293 0.463494,0.328802 0.649902,0.8444465 0.191441,0.508166 0.191441,1.875721 l -0.01511,2.451142 q 0,1.046231 0.06552,1.546919 0.07053,0.49322 0.256937,1.061163 l -1.400557,0 q -0.05542,-0.209239 -0.136027,-0.620264 -0.03531,-0.186817 -0.05041,-0.246604 -0.362733,0.523109 -0.775846,0.784669 -0.413114,0.261549 -0.88165,0.261549 -0.826227,0 -1.304837,-0.665095 -0.473569,-0.665095 -0.473569,-1.681425 0,-0.672573 0.216631,-1.195683 0.21664,-0.530575 0.604563,-0.80708 0.392964,-0.283971 1.128504,-0.493222 0.992486,-0.276493 1.375368,-0.515632 l 0,-0.209251 q 0,-0.605307 -0.201516,-0.85939 -0.201523,-0.261561 -0.760738,-0.261561 -0.377849,0 -0.589439,0.224195 -0.211598,0.216717 -0.342583,0.769715 z m 1.894276,1.703848 q -0.272046,0.13452 -0.861492,0.321337 -0.589447,0.186829 -0.770813,0.36618 -0.277087,0.291449 -0.277087,0.739827 0,0.440912 0.221673,0.762248 0.221672,0.321337 0.564248,0.321337 0.382889,0 0.730514,-0.373647 0.25693,-0.28397 0.337543,-0.694994 0.05542,-0.269027 0.05542,-1.023798 l 0,-0.41849 z m -3.758329,3.811231 -1.62223,0 -0.644861,-2.488506 -2.952258,0 -0.609596,2.488506 -1.581924,0 2.876687,-10.9554265 1.576883,0 2.957299,10.9554265 z m -2.745701,-4.33434 -1.017668,-4.0653135 -0.997519,4.0653135 2.015187,0 z m 8.768346,-10.0536765 -14.000004,0 c -1.099997,0 -1.999997,0.899995 -1.999997,1.999998 l 0,13.9999985 c 0,1.100003 0.9,1.999998 1.999997,1.999998 l 14.000004,0 c 1.099997,0 1.999997,-0.899995 1.999997,-1.999998 l 0,-13.9999985 c 0,-1.100003 -0.9,-1.999998 -1.999997,-1.999998 z"
     style="font-style:normal;font-variant:normal;font-weight:bold;font-stretch:normal;font-size:12.5662508px;line-height:125%;font-family:Arial;-inkscape-font-specification:'Arial, Bold';text-align:start;letter-spacing:0px;word-spacing:0px;writing-mode:lr-tb;text-anchor:start;fill:#dddddd;fill-opacity:1;stroke:none;stroke-width:1px;stroke-linecap:butt;stroke-linejoin:miter;stroke-opacity:1"
     id="path4790" /></g>
</svg>
